<?xml version="1.0" encoding="UTF-8" standalone="no"?>
<!-- Created with Inkscape (http://www.inkscape.org/) -->
<svg
   xmlns:dc="http://purl.org/dc/elements/1.1/"
   xmlns:cc="http://creativecommons.org/ns#"
   xmlns:rdf="http://www.w3.org/1999/02/22-rdf-syntax-ns#"
   xmlns:svg="http://www.w3.org/2000/svg"
   xmlns="http://www.w3.org/2000/svg"
   xmlns:xlink="http://www.w3.org/1999/xlink"
   xmlns:sodipodi="http://sodipodi.sourceforge.net/DTD/sodipodi-0.dtd"
   xmlns:inkscape="http://www.inkscape.org/namespaces/inkscape"
   width="60"
   height="68"
   id="svg3190"
   sodipodi:version="0.32"
   inkscape:version="0.46"
   sodipodi:docname="graal_icon.svg"
   inkscape:output_extension="org.inkscape.output.svg.inkscape"
   version="1.0"
   inkscape:export-filename="/home/ben/logo_mockup.png"
   inkscape:export-xdpi="90"
   inkscape:export-ydpi="90">
  <defs
     id="defs3192">
    <linearGradient
       id="linearGradient4051">
      <stop
         style="stop-color:#090f0b;stop-opacity:0.28865978;"
         offset="0"
         id="stop4053" />
      <stop
         id="stop4059"
         offset="0.59531248"
         style="stop-color:#090f0b;stop-opacity:0;" />
      <stop
         style="stop-color:#274130;stop-opacity:1;"
         offset="1"
         id="stop4055" />
    </linearGradient>
    <inkscape:perspective
       sodipodi:type="inkscape:persp3d"
       inkscape:vp_x="0 : 526.18109 : 1"
       inkscape:vp_y="0 : 1000 : 0"
       inkscape:vp_z="744.09448 : 526.18109 : 1"
       inkscape:persp3d-origin="372.04724 : 350.78739 : 1"
       id="perspective3198" />
    <linearGradient
       inkscape:collect="always"
       xlink:href="#linearGradient4051"
       id="linearGradient2774"
       gradientUnits="userSpaceOnUse"
       gradientTransform="matrix(1.7868961,0,0,1.7868961,-386.24329,-208.12849)"
       x1="405.91571"
       y1="240.8945"
       x2="422.84628"
       y2="240.8945" />
  </defs>
  <sodipodi:namedview
     id="base"
     pagecolor="#000000"
     bordercolor="#666666"
     borderopacity="1.0"
     gridtolerance="10000"
     guidetolerance="10"
     objecttolerance="10"
     inkscape:pageopacity="0"
     inkscape:pageshadow="2"
     inkscape:zoom="5.6568542"
     inkscape:cx="54.54988"
     inkscape:cy="24.246785"
     inkscape:document-units="px"
     inkscape:current-layer="layer1"
     showgrid="false"
     inkscape:window-width="1005"
     inkscape:window-height="758"
     inkscape:window-x="420"
     inkscape:window-y="109"
     showguides="true"
     inkscape:guide-bbox="true" />
  <metadata
     id="metadata3195">
    <rdf:RDF>
      <cc:Work
         rdf:about="">
        <dc:format>image/svg+xml</dc:format>
        <dc:type
           rdf:resource="http://purl.org/dc/dcmitype/StillImage" />
      </cc:Work>
    </rdf:RDF>
  </metadata>
  <g
     inkscape:label="Layer 1"
     inkscape:groupmode="layer"
     id="layer1"
     transform="translate(-313.22055,-188.84363)">
    <rect
       style="opacity:1;fill:#000000;fill-opacity:1;fill-rule:nonzero;stroke:none;stroke-width:1;stroke-linecap:butt;stroke-linejoin:round;stroke-miterlimit:4;stroke-dasharray:none;stroke-dashoffset:0;stroke-opacity:1"
       id="rect3003"
       width="60"
       height="68"
       x="313.22055"
       y="188.84363"
       ry="7.4246211" />
    <g
       id="g2770"
       transform="translate(0.95639,0)">
      <path
         id="path2984"
         style="fill:url(#linearGradient2774);fill-opacity:1;fill-rule:evenodd;stroke:#2c6b2a;stroke-width:1.64883041px;stroke-linecap:butt;stroke-linejoin:miter;stroke-opacity:1"
         d="M 342.33689,254.98183 C 328.60831,254.98183 316.30017,239.80018 316.30017,234.44345 C 316.30017,233.8352 316.26365,193.95224 316.26365,193.33939 C 316.26365,191.75537 319.66354,189.66805 320.54866,189.66805 C 325.83823,189.66805 325.83012,196.24229 342.33689,196.24229 C 358.84368,196.24229 358.9401,189.66805 364.22962,189.66805 C 365.11476,189.66805 368.51467,191.75537 368.51467,193.33939 C 368.51467,193.95224 368.47814,233.8352 368.47814,234.44345 C 368.47814,239.80018 355.99934,254.98183 342.33689,254.98183 z"
         sodipodi:nodetypes="cssscsssc" />
      <path
         transform="matrix(1.7868961,0,0,1.7868961,-258.92694,-127.25284)"
         d="M 326.5625,184.96875 C 326.54268,184.97152 326.46912,184.99988 326.46875,185 C 326.46856,185.00006 326.44366,185.01116 326.40625,185.03125 C 326.36884,185.05134 326.34386,185.06241 326.34375,185.0625 C 326.25618,185.13215 326.2815,185.12023 326.25,185.15625 C 326.2391,185.16617 326.22867,185.1766 326.21875,185.1875 C 326.19973,185.20659 326.18459,185.2039 326.15625,185.25 C 326.15591,185.26041 326.15591,185.27084 326.15625,185.28125 C 326.00072,185.55828 325.94295,185.83748 325.90625,186.1875 C 325.86955,186.53752 325.83859,186.89296 326,187.25 C 326.00992,187.2609 326.02035,187.27133 326.03125,187.28125 C 326.01188,187.24394 326.00317,187.29336 326.09375,187.40625 C 326.10367,187.41715 326.1141,187.42758 326.125,187.4375 C 326.15067,187.46489 326.13319,187.45113 326.1875,187.5 C 326.19742,187.5109 326.20785,187.52133 326.21875,187.53125 C 326.9255,188.06161 327.62611,188.52973 328.3125,188.9375 C 329.27389,192.31694 329.66639,195.39387 326.78125,199 C 326.7375,199.05469 326.642,199.14257 326.59375,199.3125 C 326.59891,199.29085 326.60365,199.34119 326.59375,199.375 C 326.58385,199.40881 326.5659,199.45009 326.5625,199.5625 C 326.56368,199.72996 326.58755,199.8186 326.59375,199.84375 C 326.61178,199.90893 326.64217,199.93061 326.65625,199.96875 C 326.65591,199.97916 326.65591,199.98959 326.65625,200 C 326.64417,199.96966 326.64407,199.98676 326.65625,200.03125 C 326.66843,200.07574 326.68802,200.14619 326.75,200.25 C 326.81784,200.35875 326.86053,200.36264 326.875,200.375 C 327.19373,200.78865 327.64867,201.09636 328.1875,201.1875 C 328.19791,201.18784 328.20834,201.18784 328.21875,201.1875 C 328.37864,201.21088 328.54927,201.22662 328.75,201.1875 C 328.95822,201.14047 329.19344,201.04752 329.40625,200.84375 C 329.41666,200.84409 329.42709,200.84409 329.4375,200.84375 C 329.57242,200.70622 329.62531,200.55391 329.6875,200.4375 C 332.19364,195.7459 331.92511,192.53745 331.21875,190.3125 C 332.2895,190.70055 333.32434,190.95851 334.3125,191.0625 C 334.39239,194.50756 334.00496,197.08079 333.65625,199.21875 C 333.29341,201.44329 332.96235,203.25323 333.34375,205.125 C 333.34341,205.13541 333.34341,205.14584 333.34375,205.15625 C 333.34377,205.15634 333.36701,205.16969 333.375,205.1875 C 333.39365,205.22905 333.40606,205.28096 333.40625,205.28125 C 333.41617,205.29215 333.4266,205.30258 333.4375,205.3125 C 333.44535,205.32825 333.46884,205.34387 333.46875,205.34375 C 333.47242,205.35307 333.48459,205.38184 333.5,205.40625 C 333.50616,205.41601 333.49018,205.42329 333.5,205.4375 C 333.5503,205.50414 333.55379,205.52308 333.5625,205.53125 C 333.57021,205.53887 333.58939,205.55819 333.59375,205.5625 C 333.60416,205.56284 333.61459,205.56284 333.625,205.5625 C 333.63225,205.56986 333.60078,205.54506 333.65625,205.59375 C 333.65591,205.60416 333.65591,205.61459 333.65625,205.625 C 334.03029,205.93504 334.51914,206.0316 335,206.09375 C 335.39764,206.14515 335.74644,206.12549 336.09375,206.03125 C 336.09732,206.03153 336.10117,206.03073 336.125,206.03125 C 336.17738,206.01586 336.22937,206.02177 336.28125,206 C 336.29127,205.9963 336.30059,206.0044 336.3125,206 C 336.32291,206.00034 336.33334,206.00034 336.34375,206 C 336.35876,205.99445 336.37492,205.96879 336.375,205.96875 C 336.38541,205.96909 336.39584,205.96909 336.40625,205.96875 C 336.50022,205.91426 336.46194,205.91871 336.46875,205.90625 C 336.54497,205.85269 336.5054,205.87418 336.5,205.875 C 336.50291,205.87247 336.61269,205.79505 336.5625,205.84375 C 336.56284,205.83334 336.56284,205.82291 336.5625,205.8125 C 336.56602,205.809 336.58624,205.78925 336.59375,205.78125 C 336.6019,205.77166 336.65614,205.71893 336.65625,205.71875 C 336.66992,205.68868 336.68039,205.65726 336.6875,205.625 C 336.68757,205.62481 336.7187,205.5316 336.71875,205.53125 C 336.72092,205.52058 336.71641,205.51232 336.71875,205.5 C 336.71886,205.49889 336.71822,205.48809 336.71875,205.46875 C 336.71867,205.4546 336.71891,205.44176 336.71875,205.4375 C 336.71906,205.42755 336.71931,205.37917 336.71875,205.40625 C 336.71909,205.39584 336.71909,205.38541 336.71875,205.375 C 336.51988,202.25639 336.40819,197.57753 336.4375,193.9375 C 337.33841,193.96722 338.43212,194.08003 339.59375,194.15625 C 339.33753,194.94842 339.12539,195.8803 339.03125,196.96875 C 338.50048,196.88844 337.97215,196.79828 337.59375,196.8125 C 337.58663,196.81228 337.56638,196.8054 337.5,196.8125 C 337.385,196.82495 337.33545,196.83862 337.3125,196.84375 C 337.30209,196.84341 337.29166,196.84341 337.28125,196.84375 C 337.12034,196.88591 337.05949,196.94612 337.15625,196.90625 C 337.14584,196.90591 337.13541,196.90591 337.125,196.90625 C 337.1238,196.90683 337.13144,196.93443 337.125,196.9375 C 337.11856,196.94057 337.10213,196.93341 337.09375,196.9375 C 337.0601,196.94845 337.03108,196.96883 337.03125,196.96875 C 337.00851,196.98758 336.98758,197.00851 336.96875,197.03125 C 336.93772,197.0553 336.87507,197.06243 336.875,197.0625 C 336.87495,197.06256 336.86913,197.11788 336.84375,197.15625 C 336.82119,197.19036 336.78128,197.21869 336.78125,197.21875 C 336.77987,197.23956 336.77987,197.26044 336.78125,197.28125 C 336.78117,197.28152 336.75219,197.32795 336.75,197.34375 C 336.74781,197.35955 336.75057,197.3663 336.75,197.375 C 336.74966,197.38541 336.74966,197.39584 336.75,197.40625 C 336.74901,197.41655 336.75006,197.43427 336.75,197.4375 C 336.74924,197.44828 336.74824,197.4589 336.75,197.5 C 336.75001,197.50698 336.74917,197.51667 336.75,197.53125 C 336.75083,197.54583 336.74986,197.59314 336.75,197.59375 C 336.75886,197.61533 336.7693,197.63622 336.78125,197.65625 C 336.80652,197.73722 336.80218,197.73029 336.8125,197.75 C 336.82282,197.76971 336.84309,197.78003 336.84375,197.78125 C 336.84341,197.79166 336.84341,197.80209 336.84375,197.8125 C 336.91004,197.92198 336.94976,197.9802 337.03125,198.0625 C 337.04166,198.06284 337.05209,198.06284 337.0625,198.0625 C 337.49442,198.47934 338.23512,198.82211 339,199.125 C 339.1247,200.86411 339.51326,202.02583 340.03125,202.84375 C 340.58124,203.7122 341.24699,204.21301 341.78125,204.71875 C 341.88933,204.8211 341.99891,204.91268 342.15625,205 C 342.21325,205.02919 342.28571,205.11963 342.5,205.15625 C 342.51041,205.15659 342.52084,205.15659 342.53125,205.15625 C 342.63108,205.16909 342.69705,205.16064 342.75,205.15625 C 342.76041,205.15659 342.77084,205.15659 342.78125,205.15625 C 342.91754,205.13919 342.93563,205.10352 342.96875,205.09375 C 342.97916,205.09409 342.98959,205.09409 343,205.09375 C 342.98485,205.09886 342.99916,205.12093 343.125,205.0625 C 343.1359,205.05258 343.14633,205.04215 343.15625,205.03125 C 343.2323,204.9927 343.22844,204.98371 343.25,204.96875 C 343.27156,204.95379 343.29709,204.95868 343.28125,204.96875 C 343.28159,204.95834 343.28159,204.94791 343.28125,204.9375 C 343.38442,204.86734 343.36642,204.86008 343.375,204.84375 C 343.36995,204.84555 343.43039,204.81088 343.4375,204.8125 C 343.47489,204.77729 343.51163,204.77024 343.53125,204.75 C 343.53159,204.73959 343.53159,204.72916 343.53125,204.71875 C 343.55966,204.69601 343.55311,204.73501 343.59375,204.6875 C 343.60416,204.68784 343.61459,204.68784 343.625,204.6875 C 343.67053,204.63226 343.67467,204.61401 343.6875,204.59375 C 343.70033,204.57349 343.70249,204.54217 343.6875,204.5625 C 343.89009,204.27784 344.01482,203.95465 344.09375,203.65625 C 344.16669,203.3805 344.21256,203.15142 344.1875,202.90625 C 344.18753,202.90385 344.18777,202.88444 344.1875,202.875 C 344.18754,202.86912 344.18805,202.85699 344.1875,202.84375 C 344.18756,202.83673 344.1884,202.82965 344.1875,202.8125 C 344.18679,202.80486 344.18962,202.7939 344.1875,202.78125 C 344.18709,202.77634 344.18925,202.76071 344.1875,202.75 C 344.18186,202.72418 344.1563,202.68766 344.15625,202.6875 C 344.15659,202.67709 344.15659,202.66666 344.15625,202.65625 C 344.15621,202.65612 344.16311,202.63948 344.15625,202.625 C 344.15627,202.62504 344.14222,202.58786 344.125,202.5625 C 344.11614,202.54092 344.1057,202.52003 344.09375,202.5 C 344.05722,202.45501 344.00004,202.40628 344,202.40625 C 343.99008,202.39535 343.97965,202.38492 343.96875,202.375 C 343.9687,202.37497 343.90564,202.35738 343.875,202.34375 C 343.87502,202.34376 343.85549,202.34758 343.84375,202.34375 C 343.84364,202.34372 343.81266,202.31253 343.8125,202.3125 C 343.81234,202.31247 343.7925,202.31392 343.78125,202.3125 C 343.75008,202.30939 343.71867,202.30939 343.6875,202.3125 C 343.34322,202.31036 343.04682,202.33666 342.8125,202.3125 C 342.57818,202.28834 342.42013,202.21861 342.28125,202.09375 C 342.02593,201.8642 341.7514,201.09688 341.6875,199.46875 C 342.5203,199.2598 343.32852,198.86408 343.96875,198.4375 C 344.72319,197.93482 345.25227,197.46323 345.40625,197.3125 C 345.40659,197.30209 345.40659,197.29166 345.40625,197.28125 C 345.41059,197.27709 345.42939,197.2894 345.4375,197.28125 C 345.44156,197.27717 345.42982,197.25835 345.4375,197.25 C 345.44518,197.24165 345.46834,197.1881 345.46875,197.1875 C 345.47916,197.18784 345.48959,197.18784 345.5,197.1875 C 345.54452,197.11143 345.54654,197.09736 345.5625,197.0625 C 345.67336,196.79407 345.71522,196.48818 345.75,196.15625 C 345.77898,195.87964 345.78931,195.62809 345.75,195.375 C 345.74971,195.37859 345.74952,195.36102 345.75,195.34375 C 345.75024,195.33512 345.75154,195.33418 345.75,195.3125 C 345.75025,195.29996 345.7525,195.30849 345.75,195.28125 C 345.74549,195.2607 345.75551,195.23956 345.75,195.21875 C 345.74999,195.21871 345.7192,195.22027 345.71875,195.21875 C 345.71826,195.21199 345.72113,195.20297 345.71875,195.1875 C 345.71876,195.18756 345.72305,195.17094 345.71875,195.15625 C 345.71874,195.15621 345.72221,195.13573 345.71875,195.125 C 345.71909,195.11459 345.71909,195.10416 345.71875,195.09375 C 345.71868,195.0936 345.69791,195.07959 345.6875,195.0625 C 345.68749,195.06247 345.66824,195.05325 345.65625,195.03125 C 345.64577,195.01745 345.63079,195.00656 345.625,195 C 345.61341,194.98688 345.63046,194.97422 345.625,194.96875 C 345.61459,194.96841 345.60416,194.96841 345.59375,194.96875 C 345.59375,194.96875 345.44825,195.09807 345.34375,195.1875 C 345.42834,195.10158 345.57285,194.95873 345.59375,194.9375 C 345.59375,194.9375 345.5625,194.90625 345.5625,194.90625 C 345.54367,194.88351 345.52274,194.86258 345.5,194.84375 C 345.49997,194.84373 345.44561,194.82927 345.40625,194.8125 C 345.40628,194.81252 345.37719,194.792 345.34375,194.78125 C 345.33334,194.78091 345.32291,194.78091 345.3125,194.78125 C 345.31255,194.78126 345.29136,194.78268 345.28125,194.78125 C 345.26415,194.78038 345.25597,194.78122 345.25,194.78125 C 345.23959,194.78091 345.22916,194.78091 345.21875,194.78125 C 345.21443,194.78118 345.19631,194.78125 345.1875,194.78125 C 345.1789,194.78164 345.12488,194.78127 345.125,194.78125 C 345.12489,194.78127 345.03131,194.81248 345.03125,194.8125 C 345.00967,194.82136 344.98878,194.8318 344.96875,194.84375 C 344.9685,194.84389 344.9178,194.86578 344.90625,194.875 C 344.8947,194.88422 344.88033,194.90143 344.875,194.90625 C 344.86433,194.9159 344.8483,194.90171 344.84375,194.90625 C 344.83466,194.91533 344.84788,194.93316 344.84375,194.9375 C 344.83947,194.94168 344.81274,194.93725 344.8125,194.9375 C 344.81182,194.93621 344.79658,194.97048 344.75,195.03125 C 343.81397,196.25274 342.77365,196.69825 341.75,196.90625 C 341.79912,196.09132 341.86011,195.19995 341.96875,194.125 C 342.80011,194.0604 343.60083,193.91194 344.3125,193.59375 C 344.32344,193.59292 344.33044,193.59573 344.34375,193.59375 C 344.36371,193.59078 344.40572,193.56266 344.40625,193.5625 C 344.40678,193.56234 344.49954,193.53149 344.5,193.53125 C 344.53014,193.52694 344.56113,193.53472 344.65625,193.46875 C 345.14753,193.10793 345.46895,192.50038 345.6875,191.84375 C 345.90605,191.18712 346.04362,190.48046 345.75,189.875 C 345.73959,189.87466 345.72916,189.87466 345.71875,189.875 C 345.65573,189.75559 345.63093,189.65863 345.5,189.53125 C 345.48959,189.53091 345.47916,189.53091 345.46875,189.53125 C 345.40468,189.47416 345.39852,189.45242 345.375,189.4375 C 345.35148,189.42258 345.30217,189.43049 345.3125,189.4375 C 345.31284,189.42709 345.31284,189.41666 345.3125,189.40625 C 345.09502,189.27253 344.82569,189.23259 344.5625,189.25 C 344.14978,189.27729 343.81703,189.46802 343.5,189.65625 C 343.18297,189.84448 342.85833,190.03281 342.34375,190.25 C 341.3552,190.66725 339.62655,191.07838 336.5,191.09375 C 339.2809,190.84636 341.59464,189.55686 343.40625,187.90625 C 343.41715,187.89633 343.42758,187.8859 343.4375,187.875 C 343.44169,187.87092 343.46208,187.88172 343.46875,187.875 C 343.47542,187.86828 343.45783,187.86737 343.5,187.8125 C 343.5109,187.80258 343.52133,187.79215 343.53125,187.78125 C 343.57864,187.70915 343.55445,187.73538 343.5625,187.71875 C 343.57055,187.70212 343.59656,187.6818 343.59375,187.6875 C 343.59409,187.67709 343.59409,187.66666 343.59375,187.65625 C 343.56274,187.72821 343.58322,187.67451 343.625,187.53125 C 343.63541,187.53159 343.64584,187.53159 343.65625,187.53125 C 343.78214,187.03901 343.7086,186.52136 343.53125,186.09375 C 343.51149,186.05019 343.49093,186.04054 343.46875,186 C 343.47687,186.01893 343.50004,186.02009 343.46875,185.96875 C 343.46371,185.94866 343.45897,185.93751 343.375,185.84375 C 343.34832,185.80825 343.31675,185.77668 343.28125,185.75 C 343.28103,185.74986 343.17705,185.72766 343.15625,185.71875 C 343.13622,185.7068 343.11533,185.69636 343.09375,185.6875 C 343.09395,185.68753 343.07404,185.68895 343.0625,185.6875 C 343.06237,185.68748 343.04465,185.68854 343.03125,185.6875 C 343.01784,185.68763 343.00647,185.68709 343,185.6875 C 342.97919,185.68612 342.95831,185.68612 342.9375,185.6875 C 342.93332,185.6877 342.92123,185.68568 342.90625,185.6875 C 342.89353,185.68855 342.81264,185.68746 342.8125,185.6875 C 342.79092,185.69636 342.77003,185.7068 342.75,185.71875 C 342.71998,185.73203 342.6563,185.74997 342.65625,185.75 C 342.64535,185.75992 342.63492,185.77035 342.625,185.78125 C 340.67031,187.11763 338.57422,187.765 336.03125,187.6875 C 333.48828,187.61 330.51733,186.76363 326.90625,185 C 326.83683,184.97242 326.76186,184.96171 326.6875,184.96875 C 326.70791,184.96875 326.65562,184.96799 326.625,184.96875 C 326.60963,184.96855 326.60215,184.96322 326.5625,184.96875 z"
         id="path3692"
         style="fill:#9aef95;fill-opacity:1;fill-rule:evenodd;stroke:#000000;stroke-width:0.91378808px;stroke-linecap:round;stroke-linejoin:round;stroke-opacity:0"
         inkscape:original="M 326.625 185.4375 C 326.61777 185.44325 326.60106 185.46039 326.59375 185.46875 C 326.58641 185.47837 326.56986 185.48803 326.5625 185.5 C 326.3973 185.79426 326.26543 186.68187 326.4375 187.0625 C 326.44994 187.08646 326.45324 187.10567 326.46875 187.125 C 326.47428 187.1309 326.49411 187.15095 326.5 187.15625 C 327.25612 187.72365 328.02849 188.23853 328.75 188.65625 C 329.75678 192.14177 330.18463 195.49608 327.15625 199.28125 C 327.11563 199.33202 327.07897 199.3795 327.0625 199.4375 C 327.05473 199.47008 327.03228 199.52842 327.03125 199.5625 C 327.03159 199.61055 327.05024 199.66899 327.0625 199.71875 C 327.06842 199.74015 327.08581 199.79099 327.09375 199.8125 C 327.11375 199.86272 327.12651 199.95019 327.15625 200 C 327.16952 200.02127 327.20386 200.0415 327.21875 200.0625 C 327.44964 200.37581 327.87859 200.65064 328.28125 200.71875 C 328.39759 200.73576 328.54423 200.74058 328.65625 200.71875 C 328.80186 200.68586 328.9725 200.6161 329.09375 200.5 C 329.16388 200.42851 329.22487 200.32429 329.28125 200.21875 C 332.08335 194.9731 331.37196 191.70201 330.5 189.5625 C 332.01543 190.22386 333.44477 190.56501 334.78125 190.65625 C 335.03255 198.06546 333.0949 201.50958 333.8125 205.03125 C 333.81372 205.03587 333.84227 205.05793 333.84375 205.0625 C 333.84548 205.06703 333.84176 205.08927 333.84375 205.09375 C 333.85047 205.10704 333.86611 205.14339 333.875 205.15625 C 333.8814 205.16473 333.89895 205.17922 333.90625 205.1875 C 333.91013 205.1916 333.93341 205.21471 333.9375 205.21875 C 333.94178 205.22274 333.96425 205.24605 333.96875 205.25 C 334.40603 205.61246 335.71048 205.74727 336.125 205.5625 C 336.12926 205.56044 336.15222 205.56464 336.15625 205.5625 C 336.16389 205.55807 336.18074 205.536 336.1875 205.53125 C 336.19041 205.52872 336.21606 205.50261 336.21875 205.5 C 336.22068 205.49716 336.2483 205.47168 336.25 205.46875 C 336.25117 205.46567 336.2491 205.44066 336.25 205.4375 C 336.25034 205.43418 336.24993 205.40965 336.25 205.40625 C 336.04122 202.13217 335.92466 197.14918 335.96875 193.4375 C 335.97132 193.44006 335.99749 193.43575 336 193.4375 C 337.17226 193.43471 338.69438 193.6548 340.21875 193.71875 C 339.87037 194.6782 339.49505 195.9908 339.4375 197.5 C 338.60831 197.40362 337.94905 197.2639 337.59375 197.28125 C 337.58571 197.28187 337.57017 197.28043 337.5625 197.28125 C 337.51705 197.28617 337.44188 197.30453 337.40625 197.3125 C 337.38129 197.31904 337.36348 197.33562 337.34375 197.34375 C 337.33173 197.3495 337.29106 197.36858 337.28125 197.375 C 337.27743 197.37851 337.2533 197.40258 337.25 197.40625 C 337.24774 197.41022 337.22049 197.40212 337.21875 197.40625 C 337.21747 197.41051 337.21951 197.4331 337.21875 197.4375 C 337.21845 197.44204 337.21855 197.46409 337.21875 197.46875 C 337.2194 197.47354 337.21762 197.49509 337.21875 197.5 C 337.22346 197.51509 337.24132 197.54637 337.25 197.5625 C 337.27322 197.60085 337.33242 197.67575 337.375 197.71875 C 337.72705 198.05851 338.60659 198.50177 339.4375 198.8125 C 339.62679 202.55881 340.96958 203.31085 342.09375 204.375 C 342.17857 204.45532 342.29541 204.54958 342.375 204.59375 C 342.44521 204.6297 342.52798 204.67626 342.59375 204.6875 C 342.63449 204.69274 342.67983 204.69073 342.71875 204.6875 C 342.74958 204.68364 342.81414 204.66498 342.84375 204.65625 C 342.86574 204.64884 342.91622 204.63488 342.9375 204.625 C 342.95855 204.61433 343.01092 204.57543 343.03125 204.5625 C 343.06469 204.53976 343.0936 204.49694 343.125 204.46875 C 343.13739 204.45708 343.17545 204.41868 343.1875 204.40625 C 343.19938 204.39345 343.23846 204.38849 343.25 204.375 C 343.26706 204.3543 343.29624 204.3033 343.3125 204.28125 C 343.6215 203.84707 343.75777 203.1711 343.71875 202.90625 C 343.71797 202.90192 343.71966 202.87908 343.71875 202.875 C 343.71773 202.87116 343.7199 202.84734 343.71875 202.84375 C 343.71599 202.83765 343.722 202.81749 343.71875 202.8125 C 343.71687 202.81059 343.72074 202.78286 343.71875 202.78125 C 343.71662 202.77995 343.68974 202.78225 343.6875 202.78125 C 342.40011 202.77325 341.23355 203.1331 341.1875 199.125 C 342.93276 198.88115 344.84596 197.18072 345.0625 196.96875 C 345.06582 196.96469 345.09047 196.94232 345.09375 196.9375 C 345.10024 196.92641 345.11867 196.88883 345.125 196.875 C 345.25919 196.55008 345.359 195.63731 345.28125 195.34375 C 345.27926 195.33761 345.28343 195.31795 345.28125 195.3125 C 345.27889 195.30778 345.25256 195.28521 345.25 195.28125 C 345.24856 195.27987 345.25149 195.25117 345.25 195.25 C 345.24846 195.24904 345.22033 195.25074 345.21875 195.25 C 345.2169 195.25038 345.1894 195.24938 345.1875 195.25 C 345.18348 195.25222 345.16048 195.27803 345.15625 195.28125 C 345.14732 195.28977 345.13482 195.29969 345.125 195.3125 C 343.93258 196.86857 342.51786 197.39844 341.21875 197.53125 C 341.26475 196.47831 341.3742 195.23401 341.53125 193.71875 C 342.52111 193.6821 343.46908 193.50277 344.25 193.125 C 344.25729 193.12147 344.27394 193.12886 344.28125 193.125 C 344.30318 193.11251 344.35307 193.10896 344.375 193.09375 C 345.0467 192.60042 345.68583 190.86357 345.3125 190.09375 C 345.27812 190.02861 345.20672 189.9241 345.15625 189.875 C 345.13652 189.85742 345.08462 189.82751 345.0625 189.8125 C 344.94012 189.73725 344.79145 189.70567 344.59375 189.71875 C 343.42935 189.79575 343.039 191.63362 336.1875 191.59375 C 336.17706 191.59413 336.13493 191.5925 336.125 191.59375 C 336.12015 191.59459 336.09847 191.59269 336.09375 191.59375 C 336.08924 191.59521 336.09813 191.62335 336.09375 191.625 C 336.08948 191.62686 336.06665 191.62295 336.0625 191.625 C 336.05037 191.6317 336.01112 191.64792 336 191.65625 C 336.0118 191.3094 336.0146 190.98729 336.03125 190.6875 C 338.88482 190.55752 341.24152 189.25012 343.09375 187.5625 C 343.09767 187.55819 343.12128 187.53609 343.125 187.53125 C 343.13202 187.52057 343.15004 187.48134 343.15625 187.46875 C 343.16495 187.44856 343.18056 187.43005 343.1875 187.40625 C 343.26384 187.10776 343.20469 186.54873 343.09375 186.28125 C 343.08738 186.26721 343.06923 186.23105 343.0625 186.21875 C 343.05212 186.20172 343.0424 186.1687 343.03125 186.15625 C 343.02728 186.1538 343.00402 186.15806 343 186.15625 C 342.99792 186.15597 342.97084 186.15634 342.96875 186.15625 C 342.96661 186.15665 342.93966 186.15564 342.9375 186.15625 C 342.9353 186.15739 342.90847 186.15491 342.90625 186.15625 C 338.85478 188.92615 333.98641 189.00224 326.6875 185.4375 C 326.68575 185.4375 326.65797 185.43732 326.65625 185.4375 C 326.65267 185.43968 326.6286 185.43463 326.625 185.4375 z "
         inkscape:radius="0.47198647"
         sodipodi:type="inkscape:offset" />
    </g>
    <path
       style="opacity:0.5;fill:#000000;fill-opacity:1;fill-rule:nonzero;stroke:none;stroke-width:1;stroke-linecap:butt;stroke-linejoin:round;stroke-miterlimit:4;stroke-dasharray:none;stroke-dashoffset:0;stroke-opacity:1"
       d="M 2.625 1.75 C 2.2679558 2.0516538 1.9504942 2.386581 1.65625 2.75 L 58.34375 2.75 C 58.049506 2.3865811 57.732044 2.0516538 57.375 1.75 L 2.625 1.75 z M 0.96875 3.75 C 0.78839498 4.0676894 0.63264562 4.404979 0.5 4.75 L 59.5 4.75 C 59.367354 4.404979 59.211605 4.0676894 59.03125 3.75 L 0.96875 3.75 z M 0.21875 5.75 C 0.141916 6.0821117 0.062136594 6.4021678 0.03125 6.75 L 59.96875 6.75 C 59.937863 6.4021678 59.858084 6.0821117 59.78125 5.75 L 0.21875 5.75 z M 0 7.78125 L 0 8.78125 L 60 8.78125 L 60 7.78125 L 0 7.78125 z M 0 9.78125 L 0 10.78125 L 60 10.78125 L 60 9.78125 L 0 9.78125 z M 0 11.78125 L 0 12.78125 L 60 12.78125 L 60 11.78125 L 0 11.78125 z M 0 13.78125 L 0 14.78125 L 60 14.78125 L 60 13.78125 L 0 13.78125 z M 0 15.8125 L 0 16.8125 L 60 16.8125 L 60 15.8125 L 0 15.8125 z M 0 17.8125 L 0 18.8125 L 60 18.8125 L 60 17.8125 L 0 17.8125 z M 0 19.8125 L 0 20.8125 L 60 20.8125 L 60 19.8125 L 0 19.8125 z M 0 21.8125 L 0 22.8125 L 60 22.8125 L 60 21.8125 L 0 21.8125 z M 0 23.84375 L 0 24.84375 L 60 24.84375 L 60 23.84375 L 0 23.84375 z M 0 25.84375 L 0 26.84375 L 60 26.84375 L 60 25.84375 L 0 25.84375 z M 0 27.84375 L 0 28.84375 L 60 28.84375 L 60 27.84375 L 0 27.84375 z M 0 29.84375 L 0 30.84375 L 60 30.84375 L 60 29.84375 L 0 29.84375 z M 0 31.875 L 0 32.875 L 60 32.875 L 60 31.875 L 0 31.875 z M 0 33.875 L 0 34.875 L 60 34.875 L 60 33.875 L 0 33.875 z M 0 35.875 L 0 36.875 L 60 36.875 L 60 35.875 L 0 35.875 z M 0 37.875 L 0 38.875 L 60 38.875 L 60 37.875 L 0 37.875 z M 0 39.90625 L 0 40.90625 L 60 40.90625 L 60 39.90625 L 0 39.90625 z M 0 41.90625 L 0 42.90625 L 60 42.90625 L 60 41.90625 L 0 41.90625 z M 0 43.90625 L 0 44.90625 L 60 44.90625 L 60 43.90625 L 0 43.90625 z M 0 45.90625 L 0 46.90625 L 60 46.90625 L 60 45.90625 L 0 45.90625 z M 0 47.9375 L 0 48.9375 L 60 48.9375 L 60 47.9375 L 0 47.9375 z M 0 49.9375 L 0 50.9375 L 60 50.9375 L 60 49.9375 L 0 49.9375 z M 0 51.9375 L 0 52.9375 L 60 52.9375 L 60 51.9375 L 0 51.9375 z M 0 53.9375 L 0 54.9375 L 60 54.9375 L 60 53.9375 L 0 53.9375 z M 0 55.96875 L 0 56.96875 L 60 56.96875 L 60 55.96875 L 0 55.96875 z M 0 57.96875 L 0 58.96875 L 60 58.96875 L 60 57.96875 L 0 57.96875 z M 0 59.96875 L 0 60.5625 L 0 60.96875 C 2.1191465e-05 60.969155 0.031228744 60.968345 0.03125 60.96875 L 59.96875 60.96875 C 59.975679 60.836658 60 60.696377 60 60.5625 L 60 59.96875 L 0 59.96875 z M 0.125 61.96875 C 0.18978379 62.310283 0.29667237 62.645769 0.40625 62.96875 L 59.59375 62.96875 C 59.703328 62.645769 59.810216 62.310283 59.875 61.96875 L 0.125 61.96875 z M 0.84375 64 C 1.0283815 64.356474 1.2309331 64.680518 1.46875 65 L 58.53125 65 C 58.769067 64.680518 58.971619 64.356474 59.15625 64 L 0.84375 64 z M 2.34375 66 C 2.7577368 66.387539 3.2237542 66.715021 3.71875 67 L 56.28125 67 C 56.776246 66.715022 57.242263 66.387538 57.65625 66 L 2.34375 66 z "
       transform="translate(313.22055,188.84363)"
       id="path2932" />
  </g>
  <g
     inkscape:groupmode="layer"
     id="layer2"
     inkscape:label="Scanlines"
     transform="translate(-26.25,-174.47242)" />
</svg>
