<?xml version="1.0" encoding="UTF-8" standalone="no"?>
<!-- Created with Inkscape (http://www.inkscape.org/) -->

<svg
   xmlns:dc="http://purl.org/dc/elements/1.1/"
   xmlns:cc="http://creativecommons.org/ns#"
   xmlns:rdf="http://www.w3.org/1999/02/22-rdf-syntax-ns#"
   xmlns:svg="http://www.w3.org/2000/svg"
   xmlns="http://www.w3.org/2000/svg"
   xmlns:xlink="http://www.w3.org/1999/xlink"
   xmlns:sodipodi="http://sodipodi.sourceforge.net/DTD/sodipodi-0.dtd"
   xmlns:inkscape="http://www.inkscape.org/namespaces/inkscape"
   inkscape:version="0.48.5 r10040"
   version="1.1"
   id="svg2"
   height="32"
   width="32"
   sodipodi:docname="toolbar-create-link.svg">
  <defs
     id="defs4">
    <linearGradient
       id="linearGradient7522">
      <stop
         style="stop-color:#dc0000;stop-opacity:1;"
         offset="0"
         id="stop7524" />
      <stop
         id="stop7530"
         offset="0.5"
         style="stop-color:#ed0000;stop-opacity:1;" />
      <stop
         style="stop-color:#ffffff;stop-opacity:1;"
         offset="1"
         id="stop7526" />
    </linearGradient>
    <filter
       inkscape:collect="always"
       id="filter6991">
      <feGaussianBlur
         inkscape:collect="always"
         stdDeviation="0.3133138"
         id="feGaussianBlur6993" />
    </filter>
    <linearGradient
       inkscape:collect="always"
       xlink:href="#linearGradient5641"
       id="linearGradient7528"
       x1="7.9437823"
       y1="17.856918"
       x2="28.509041"
       y2="9.1948595"
       gradientUnits="userSpaceOnUse"
       gradientTransform="matrix(0.94325866,0,0,0.94325866,0.57354269,1021.4544)" />
    <linearGradient
       inkscape:collect="always"
       xlink:href="#linearGradient5641"
       id="linearGradient3859"
       gradientUnits="userSpaceOnUse"
       gradientTransform="matrix(0.96592582,0.25881905,-0.25881905,0.96592582,11.576116,-27.632018)"
       x1="70.259216"
       y1="34.968266"
       x2="98.626091"
       y2="18.590643" />
    <linearGradient
       id="linearGradient5641">
      <stop
         style="stop-color:#ff7676;stop-opacity:1;"
         offset="0"
         id="stop5643" />
      <stop
         style="stop-color:#d10000;stop-opacity:1;"
         offset="1"
         id="stop5645" />
    </linearGradient>
    <linearGradient
       y2="18.590643"
       x2="98.626091"
       y1="34.968266"
       x1="70.259216"
       gradientTransform="matrix(0.96013833,-0.18361599,-0.03726835,0.8552964,-147.36842,1013.155)"
       gradientUnits="userSpaceOnUse"
       id="linearGradient7547"
       xlink:href="#linearGradient5641"
       inkscape:collect="always" />
    <linearGradient
       inkscape:collect="always"
       xlink:href="#linearGradient5641"
       id="linearGradient7568"
       gradientUnits="userSpaceOnUse"
       x1="7.9437823"
       y1="17.856918"
       x2="28.509041"
       y2="9.1948595" />
    <filter
       inkscape:collect="always"
       id="filter7608"
       x="-0.069510959"
       width="1.1390219"
       y="-0.1061199"
       height="1.2122398">
      <feGaussianBlur
         inkscape:collect="always"
         stdDeviation="0.68300903"
         id="feGaussianBlur7610" />
    </filter>
    <filter
       inkscape:collect="always"
       id="filter7651">
      <feGaussianBlur
         inkscape:collect="always"
         stdDeviation="0.60755547"
         id="feGaussianBlur7653" />
    </filter>
    <clipPath
       clipPathUnits="userSpaceOnUse"
       id="clipPath7787">
      <rect
         style="color:#000000;fill:#000000;fill-opacity:1;fill-rule:nonzero;stroke:none;stroke-width:1.39999998;marker:none;visibility:visible;display:inline;overflow:visible;enable-background:accumulate"
         id="rect7789"
         width="32"
         height="32"
         x="0"
         y="1020.3622" />
    </clipPath>
  </defs>
  <sodipodi:namedview
     id="base"
     pagecolor="#ffffff"
     bordercolor="#666666"
     borderopacity="1.0"
     inkscape:pageopacity="0.0"
     inkscape:pageshadow="2"
     inkscape:zoom="8"
     inkscape:cx="3.2971411"
     inkscape:cy="7.2044133"
     inkscape:document-units="px"
     inkscape:current-layer="layer1"
     showgrid="true"
     inkscape:window-width="1121"
     inkscape:window-height="810"
     inkscape:window-x="29"
     inkscape:window-y="209"
     inkscape:window-maximized="0">
    <inkscape:grid
       type="xygrid"
       id="grid3871"
       empspacing="8"
       visible="true"
       enabled="false"
       snapvisiblegridlinesonly="true" />
  </sodipodi:namedview>
  <metadata
     id="metadata7">
    <rdf:RDF>
      <cc:Work
         rdf:about="">
        <dc:format>image/svg+xml</dc:format>
        <dc:type
           rdf:resource="http://purl.org/dc/dcmitype/StillImage" />
        <dc:title></dc:title>
      </cc:Work>
    </rdf:RDF>
  </metadata>
  <g
     inkscape:label="Layer 1"
     inkscape:groupmode="layer"
     id="layer1"
     transform="translate(0,-1020.3622)">
    <g
       id="g7687"
       clip-path="url(#clipPath7787)">
      <g
         transform="translate(-1.625,0.875)"
         id="g7612">
        <path
           style="color:#000000;fill:#000000;fill-opacity:1;fill-rule:nonzero;stroke:none;stroke-width:1;marker:none;visibility:visible;display:inline;overflow:visible;filter:url(#filter6991);enable-background:accumulate"
           d="m -5.5625,1018.3622 1.1875,9.2188 1.1875,9.25 1.1875,9.2187 1.1875,9.25 9.21875,0 9.25,0 -1.1875,-9.25 -1.1875,-9.2187 -1.1875,-9.25 -1.1875,-9.2188 -9.25,0 -9.21875,0 z"
           id="rect4042"
           inkscape:connector-curvature="0" />
        <g
           transform="matrix(0.57692308,0,0.07421875,0.57692187,-84.073756,415.84682)"
           id="g3916">
          <rect
             style="color:#000000;fill:#369a00;fill-opacity:1;fill-rule:nonzero;stroke:none;stroke-width:1;marker:none;visibility:visible;display:inline;overflow:visible;enable-background:accumulate"
             id="rect3918"
             width="16"
             height="16"
             x="16"
             y="1044.3622" />
          <rect
             y="1044.3622"
             x="0"
             height="16"
             width="16"
             id="rect3920"
             style="color:#000000;fill:#3dae00;fill-opacity:1;fill-rule:nonzero;stroke:none;stroke-width:1;marker:none;visibility:visible;display:inline;overflow:visible;enable-background:accumulate" />
          <rect
             style="color:#000000;fill:#41bb00;fill-opacity:1;fill-rule:nonzero;stroke:none;stroke-width:1;marker:none;visibility:visible;display:inline;overflow:visible;enable-background:accumulate"
             id="rect3922"
             width="16"
             height="16"
             x="0"
             y="1060.3622" />
          <rect
             style="color:#000000;fill:#3aa400;fill-opacity:1;fill-rule:nonzero;stroke:none;stroke-width:1;marker:none;visibility:visible;display:inline;overflow:visible;enable-background:accumulate"
             id="rect3924"
             width="16"
             height="16"
             x="16"
             y="1060.3622" />
          <rect
             y="1076.3622"
             x="0"
             height="16"
             width="16"
             id="rect3926"
             style="color:#000000;fill:#3eae00;fill-opacity:1;fill-rule:nonzero;stroke:none;stroke-width:1;marker:none;visibility:visible;display:inline;overflow:visible;enable-background:accumulate" />
          <rect
             style="color:#000000;fill:#42b800;fill-opacity:1;fill-rule:nonzero;stroke:none;stroke-width:1;marker:none;visibility:visible;display:inline;overflow:visible;enable-background:accumulate"
             id="rect3928"
             width="16"
             height="16"
             x="16"
             y="1076.3622" />
          <rect
             style="color:#000000;fill:#3ca700;fill-opacity:1;fill-rule:nonzero;stroke:none;stroke-width:1;marker:none;visibility:visible;display:inline;overflow:visible;enable-background:accumulate"
             id="rect3930"
             width="16"
             height="16"
             x="0"
             y="1092.3622" />
          <rect
             y="1092.3622"
             x="16"
             height="16"
             width="16"
             id="rect3932"
             style="color:#000000;fill:#389f00;fill-opacity:1;fill-rule:nonzero;stroke:none;stroke-width:1;marker:none;visibility:visible;display:inline;overflow:visible;enable-background:accumulate" />
          <rect
             style="color:#000000;fill:#a8c500;fill-opacity:0.52682926;fill-rule:nonzero;stroke:#efff42;stroke-width:1.73333514;stroke-opacity:1;marker:none;visibility:visible;display:inline;overflow:visible;enable-background:accumulate"
             id="rect3934"
             width="16"
             height="32"
             x="16"
             y="40"
             transform="translate(0,1020.3622)" />
        </g>
      </g>
      <path
         sodipodi:type="inkscape:offset"
         inkscape:radius="1.2855359"
         inkscape:original="M 17.71875 6.4375 L 19.53125 9.03125 C 15.9902 8.8031527 11.188264 9.8762667 8.5625 13.6875 L 9.40625 20.4375 C 12.692388 16.042557 16.320847 15.079394 20.03125 15.1875 L 18.65625 18.28125 L 30.71875 11.53125 L 17.71875 6.4375 z "
         style="color:#000000;fill:#000000;fill-opacity:1;fill-rule:nonzero;stroke:none;stroke-width:1.39999998;marker:none;visibility:visible;display:inline;overflow:visible;filter:url(#filter7651);enable-background:accumulate"
         id="path7625"
         d="M 17.5625,5.15625 A 1.2856645,1.2856645 0 0 0 16.65625,7.1875 l 0.4375,0.625 C 13.676873,8.1202935 9.8744386,9.5223095 7.5,12.96875 a 1.2856645,1.2856645 0 0 0 -0.21875,0.875 l 0.84375,6.75 a 1.2856645,1.2856645 0 0 0 2.3125,0.625 C 12.899799,17.925624 15.344094,16.825047 18,16.5625 L 17.46875,17.75 a 1.2856645,1.2856645 0 0 0 1.8125,1.65625 l 12.0625,-6.75 a 1.2856645,1.2856645 0 0 0 -0.15625,-2.3125 l -13,-5.09375 a 1.2856645,1.2856645 0 0 0 -0.625,-0.09375 z"
         transform="matrix(0.94325866,0,0,0.94325866,0.4485427,1022.2044)" />
      <path
         transform="matrix(0.94325866,0,0,0.94325866,0.57354269,1021.4544)"
         d="M 17.5625,5.15625 A 1.2856645,1.2856645 0 0 0 16.65625,7.1875 l 0.4375,0.625 C 13.676873,8.1202935 9.8744386,9.5223095 7.5,12.96875 a 1.2856645,1.2856645 0 0 0 -0.21875,0.875 l 0.84375,6.75 a 1.2856645,1.2856645 0 0 0 2.3125,0.625 C 12.899799,17.925624 15.344094,16.825047 18,16.5625 L 17.46875,17.75 a 1.2856645,1.2856645 0 0 0 1.8125,1.65625 l 12.0625,-6.75 a 1.2856645,1.2856645 0 0 0 -0.15625,-2.3125 l -13,-5.09375 a 1.2856645,1.2856645 0 0 0 -0.625,-0.09375 z"
         id="path7570"
         style="color:#000000;fill:#ffffff;fill-opacity:1;fill-rule:nonzero;stroke:none;stroke-width:1.39999998;marker:none;visibility:visible;display:inline;overflow:visible;enable-background:accumulate"
         inkscape:original="M 17.71875 6.4375 L 19.53125 9.03125 C 15.9902 8.8031527 11.188264 9.8762667 8.5625 13.6875 L 9.40625 20.4375 C 12.692388 16.042557 16.320847 15.079394 20.03125 15.1875 L 18.65625 18.28125 L 30.71875 11.53125 L 17.71875 6.4375 z "
         inkscape:radius="1.2855359"
         sodipodi:type="inkscape:offset" />
      <path
         inkscape:connector-curvature="0"
         id="path6997"
         d="m 17.286907,1027.5266 1.709656,2.4466 c -3.340126,-0.2151 -7.869593,0.7971 -10.346368,4.392 l 0.7958745,6.367 c 3.0996785,-4.1455 6.5222535,-5.0541 10.0221235,-4.9521 l -1.296981,2.9183 11.378058,-6.367 -12.262363,-4.8048 z"
         style="color:#000000;fill:url(#linearGradient7528);fill-opacity:1;fill-rule:nonzero;stroke:none;stroke-width:1.39999998;marker:none;visibility:visible;display:inline;overflow:visible;enable-background:accumulate" />
      <g
         id="g7657"
         transform="translate(-1.625,0.875)">
        <path
           inkscape:connector-curvature="0"
           id="path7659"
           d="m -5.5625,1018.3622 1.1875,9.2188 1.1875,9.25 1.1875,9.2187 1.1875,9.25 9.21875,0 9.25,0 -1.1875,-9.25 -1.1875,-9.2187 -1.1875,-9.25 -1.1875,-9.2188 -9.25,0 -9.21875,0 z"
           style="color:#000000;fill:#000000;fill-opacity:1;fill-rule:nonzero;stroke:none;stroke-width:1;marker:none;visibility:visible;display:inline;overflow:visible;filter:url(#filter6991);enable-background:accumulate" />
        <g
           id="g7661"
           transform="matrix(0.57692308,0,0.07421875,0.57692187,-84.073756,415.84682)">
          <rect
             y="1044.3622"
             x="16"
             height="16"
             width="16"
             id="rect7663"
             style="color:#000000;fill:#369a00;fill-opacity:1;fill-rule:nonzero;stroke:none;stroke-width:1;marker:none;visibility:visible;display:inline;overflow:visible;enable-background:accumulate" />
          <rect
             style="color:#000000;fill:#3dae00;fill-opacity:1;fill-rule:nonzero;stroke:none;stroke-width:1;marker:none;visibility:visible;display:inline;overflow:visible;enable-background:accumulate"
             id="rect7665"
             width="16"
             height="16"
             x="0"
             y="1044.3622" />
          <rect
             y="1060.3622"
             x="0"
             height="16"
             width="16"
             id="rect7667"
             style="color:#000000;fill:#41bb00;fill-opacity:1;fill-rule:nonzero;stroke:none;stroke-width:1;marker:none;visibility:visible;display:inline;overflow:visible;enable-background:accumulate" />
          <rect
             y="1060.3622"
             x="16"
             height="16"
             width="16"
             id="rect7669"
             style="color:#000000;fill:#3aa400;fill-opacity:1;fill-rule:nonzero;stroke:none;stroke-width:1;marker:none;visibility:visible;display:inline;overflow:visible;enable-background:accumulate" />
          <rect
             style="color:#000000;fill:#3eae00;fill-opacity:1;fill-rule:nonzero;stroke:none;stroke-width:1;marker:none;visibility:visible;display:inline;overflow:visible;enable-background:accumulate"
             id="rect7671"
             width="16"
             height="16"
             x="0"
             y="1076.3622" />
          <rect
             y="1076.3622"
             x="16"
             height="16"
             width="16"
             id="rect7673"
             style="color:#000000;fill:#42b800;fill-opacity:1;fill-rule:nonzero;stroke:none;stroke-width:1;marker:none;visibility:visible;display:inline;overflow:visible;enable-background:accumulate" />
          <rect
             y="1092.3622"
             x="0"
             height="16"
             width="16"
             id="rect7675"
             style="color:#000000;fill:#3ca700;fill-opacity:1;fill-rule:nonzero;stroke:none;stroke-width:1;marker:none;visibility:visible;display:inline;overflow:visible;enable-background:accumulate" />
          <rect
             style="color:#000000;fill:#389f00;fill-opacity:1;fill-rule:nonzero;stroke:none;stroke-width:1;marker:none;visibility:visible;display:inline;overflow:visible;enable-background:accumulate"
             id="rect7677"
             width="16"
             height="16"
             x="16"
             y="1092.3622" />
          <rect
             transform="translate(0,1020.3622)"
             y="40"
             x="16"
             height="32"
             width="16"
             id="rect7679"
             style="color:#000000;fill:#a8c500;fill-opacity:0.52682926;fill-rule:nonzero;stroke:#efff42;stroke-width:1.73333514;stroke-opacity:1;marker:none;visibility:visible;display:inline;overflow:visible;enable-background:accumulate" />
        </g>
      </g>
      <path
         transform="matrix(0.94325866,0,0,0.94325866,0.4485427,1022.2044)"
         d="M 17.5625,5.15625 A 1.2856645,1.2856645 0 0 0 16.65625,7.1875 l 0.4375,0.625 C 13.676873,8.1202935 9.8744386,9.5223095 7.5,12.96875 a 1.2856645,1.2856645 0 0 0 -0.21875,0.875 l 0.84375,6.75 a 1.2856645,1.2856645 0 0 0 2.3125,0.625 C 12.899799,17.925624 15.344094,16.825047 18,16.5625 L 17.46875,17.75 a 1.2856645,1.2856645 0 0 0 1.8125,1.65625 l 12.0625,-6.75 a 1.2856645,1.2856645 0 0 0 -0.15625,-2.3125 l -13,-5.09375 a 1.2856645,1.2856645 0 0 0 -0.625,-0.09375 z"
         id="path7681"
         style="color:#000000;fill:#000000;fill-opacity:1;fill-rule:nonzero;stroke:none;stroke-width:1.39999998;marker:none;visibility:visible;display:inline;overflow:visible;filter:url(#filter7651);enable-background:accumulate"
         inkscape:original="M 17.71875 6.4375 L 19.53125 9.03125 C 15.9902 8.8031527 11.188264 9.8762667 8.5625 13.6875 L 9.40625 20.4375 C 12.692388 16.042557 16.320847 15.079394 20.03125 15.1875 L 18.65625 18.28125 L 30.71875 11.53125 L 17.71875 6.4375 z "
         inkscape:radius="1.2855359"
         sodipodi:type="inkscape:offset" />
      <path
         sodipodi:type="inkscape:offset"
         inkscape:radius="1.2855359"
         inkscape:original="M 17.71875 6.4375 L 19.53125 9.03125 C 15.9902 8.8031527 11.188264 9.8762667 8.5625 13.6875 L 9.40625 20.4375 C 12.692388 16.042557 16.320847 15.079394 20.03125 15.1875 L 18.65625 18.28125 L 30.71875 11.53125 L 17.71875 6.4375 z "
         style="color:#000000;fill:#ffffff;fill-opacity:1;fill-rule:nonzero;stroke:none;stroke-width:1.39999998;marker:none;visibility:visible;display:inline;overflow:visible;enable-background:accumulate"
         id="path7683"
         d="M 17.5625,5.15625 A 1.2856645,1.2856645 0 0 0 16.65625,7.1875 l 0.4375,0.625 C 13.676873,8.1202935 9.8744386,9.5223095 7.5,12.96875 a 1.2856645,1.2856645 0 0 0 -0.21875,0.875 l 0.84375,6.75 a 1.2856645,1.2856645 0 0 0 2.3125,0.625 C 12.899799,17.925624 15.344094,16.825047 18,16.5625 L 17.46875,17.75 a 1.2856645,1.2856645 0 0 0 1.8125,1.65625 l 12.0625,-6.75 a 1.2856645,1.2856645 0 0 0 -0.15625,-2.3125 l -13,-5.09375 a 1.2856645,1.2856645 0 0 0 -0.625,-0.09375 z"
         transform="matrix(0.94325866,0,0,0.94325866,0.57354269,1021.4544)" />
      <path
         style="color:#000000;fill:url(#linearGradient7528);fill-opacity:1;fill-rule:nonzero;stroke:none;stroke-width:1.39999998;marker:none;visibility:visible;display:inline;overflow:visible;enable-background:accumulate"
         d="m 17.286907,1027.5266 1.709656,2.4466 c -3.340126,-0.2151 -7.869593,0.7971 -10.346368,4.392 l 0.7958745,6.367 c 3.0996785,-4.1455 6.5222535,-5.0541 10.0221235,-4.9521 l -1.296981,2.9183 11.378058,-6.367 -12.262363,-4.8048 z"
         id="path7685"
         inkscape:connector-curvature="0" />
    </g>
  </g>
</svg>
